<?xml version="1.0" encoding="utf-8"?>
<!-- Generator: Adobe Illustrator 25.0.0, SVG Export Plug-In . SVG Version: 6.00 Build 0)  -->
<svg version="1.1" id="圖層_1" xmlns="http://www.w3.org/2000/svg" xmlns:xlink="http://www.w3.org/1999/xlink" x="0px" y="0px"
	 viewBox="0 0 1366 1702" style="enable-background:new 0 0 1366 1702;" xml:space="preserve">
<style type="text/css">
	.st0{fill:#F5F5F5;stroke:#000000;stroke-miterlimit:10;}
	.st1{fill:#CCCCCC;stroke:#000000;stroke-miterlimit:10;}
	.st2{fill:#FFE5EE;}
	.st3{fill:#FFB0CD;}
	.st4{fill:#FF7BAC;}
</style>
<path class="st0" d="M1317.89,1686.7H46.98c-21.9,0-39.65-17.75-39.65-39.65V42.65C7.33,20.75,25.08,3,46.98,3h1270.91
	c21.9,0,39.65,17.75,39.65,39.65v1604.39C1357.54,1668.94,1339.79,1686.7,1317.89,1686.7z"/>
<path class="st1" d="M1357.54,42.65c0-21.9-17.75-39.65-39.65-39.65H46.98C25.08,3,7.33,20.75,7.33,42.65v10.77h1350.22
	L1357.54,42.65L1357.54,42.65z"/>
<g>
	<circle class="st2" cx="48.66" cy="33.86" r="7.25"/>
	<path d="M48.66,26.86c3.86,0,7,3.14,7,7s-3.14,7-7,7s-7-3.14-7-7S44.8,26.86,48.66,26.86 M48.66,26.36c-4.14,0-7.5,3.36-7.5,7.5
		s3.36,7.5,7.5,7.5s7.5-3.36,7.5-7.5S52.8,26.36,48.66,26.36L48.66,26.36z"/>
</g>
<g>
	<circle class="st3" cx="69.52" cy="33.86" r="7.25"/>
	<path d="M69.52,26.86c3.86,0,7,3.14,7,7s-3.14,7-7,7s-7-3.14-7-7S65.66,26.86,69.52,26.86 M69.52,26.36c-4.14,0-7.5,3.36-7.5,7.5
		s3.36,7.5,7.5,7.5s7.5-3.36,7.5-7.5S73.66,26.36,69.52,26.36L69.52,26.36z"/>
</g>
<g>
	<circle class="st4" cx="90.39" cy="33.86" r="7.25"/>
	<path d="M90.39,26.86c3.86,0,7,3.14,7,7s-3.14,7-7,7s-7-3.14-7-7S86.53,26.86,90.39,26.86 M90.39,26.36c-4.14,0-7.5,3.36-7.5,7.5
		s3.36,7.5,7.5,7.5s7.5-3.36,7.5-7.5S94.53,26.36,90.39,26.36L90.39,26.36z"/>
</g>
</svg>
