<?xml version="1.0" encoding="utf-8"?>
<!-- Generator: Adobe Illustrator 25.0.0, SVG Export Plug-In . SVG Version: 6.00 Build 0)  -->
<svg version="1.1" id="圖層_1" xmlns="http://www.w3.org/2000/svg" xmlns:xlink="http://www.w3.org/1999/xlink" x="0px" y="0px"
	 viewBox="0 0 1366 1702" style="enable-background:new 0 0 1366 1702;" xml:space="preserve">
<style type="text/css">
	.st0{fill:#F2F2F2;stroke:#000000;stroke-miterlimit:10;}
	.st1{fill:#CCCCCC;stroke:#000000;stroke-miterlimit:10;}
	.st2{fill:#85C9B9;stroke:#000000;stroke-width:0.5;stroke-miterlimit:10;}
	.st3{fill:#33A58A;stroke:#000000;stroke-width:0.5;stroke-miterlimit:10;}
	.st4{fill:#008F6D;stroke:#000000;stroke-width:0.5;stroke-miterlimit:10;}
</style>
<path class="st0" d="M1317.89,1686.7H46.98c-21.9,0-39.65-17.75-39.65-39.65V42.65C7.33,20.75,25.08,3,46.98,3h1270.91
	c21.9,0,39.65,17.75,39.65,39.65v1604.39C1357.54,1668.94,1339.79,1686.7,1317.89,1686.7z"/>
<path class="st1" d="M1357.54,42.65c0-21.9-17.75-39.65-39.65-39.65H46.98C25.08,3,7.33,20.75,7.33,42.65v10.77h1350.22
	L1357.54,42.65L1357.54,42.65z"/>
<g>
	<circle class="st2" cx="48.66" cy="33.86" r="7.25"/>
</g>
<g>
	<circle class="st3" cx="69.52" cy="33.86" r="7.25"/>
</g>
<g>
	<circle class="st4" cx="90.39" cy="33.86" r="7.25"/>
</g>
</svg>
