<?xml version="1.0" encoding="utf-8"?>
<!-- Generator: Adobe Illustrator 25.0.0, SVG Export Plug-In . SVG Version: 6.00 Build 0)  -->
<svg version="1.1" id="Group_14" xmlns="http://www.w3.org/2000/svg" xmlns:xlink="http://www.w3.org/1999/xlink" x="0px" y="0px"
	 viewBox="0 0 460 108.8" style="enable-background:new 0 0 460 108.8;" xml:space="preserve">
<style type="text/css">
	.st0{opacity:0.75;fill:url(#SVGID_1_);enable-background:new    ;}
	.st1{opacity:0.53;}
	.st2{fill:url(#SVGID_2_);}
	.st3{opacity:0.85;fill:url(#SVGID_3_);enable-background:new    ;}
	.st4{fill:#999999;}
	.st5{font-family:'COCOGOOSE-DemiBold';}
	.st6{font-size:48px;}
	.st7{letter-spacing:2;}
	.st8{font-size:35px;}
	.st9{letter-spacing:1;}
</style>
<g>
	
		<linearGradient id="SVGID_1_" gradientUnits="userSpaceOnUse" x1="-25.3332" y1="42.799" x2="92.4969" y2="64.7442" gradientTransform="matrix(1 0 0 -1 0 110)">
		<stop  offset="0" style="stop-color:#FCBC5E"/>
		<stop  offset="0.1474" style="stop-color:#FCBA63"/>
		<stop  offset="0.3225" style="stop-color:#FBB671"/>
		<stop  offset="0.5119" style="stop-color:#FBAE89"/>
		<stop  offset="0.7113" style="stop-color:#FAA3AB"/>
		<stop  offset="0.9165" style="stop-color:#F994D5"/>
		<stop  offset="1" style="stop-color:#F88EE9"/>
	</linearGradient>
	<path class="st0" d="M73.5,15.7c-10.7,0-19.4,8.7-19.4,19.4l0,0v8.1c-0.5,0-18.6,0-18.6,0c-2.1,0-3.8-1.7-3.8-3.8
		c0-12.1,0-21.4,0-21.4c0-1.1-0.9-1.9-1.9-1.9C19.2,16,10.5,24.7,10.5,35.4l0,0v58.1h0.2c11.6,0,21-9.4,21-21c0-2.8,0-5.8,0-8.9
		c0.2-1.4,1.4-2.5,2.8-2.5c0,0,19.2,0,19.6,0v32.1h0.2c11.6,0,21-9.4,21-21c0-22.4,0-54.5,0-54.5C75.5,16.5,74.6,15.7,73.5,15.7z"/>
	<g class="st1">
		<g>
			
				<linearGradient id="SVGID_2_" gradientUnits="userSpaceOnUse" x1="54.2536" y1="55.75" x2="75.5536" y2="55.75" gradientTransform="matrix(1 0 0 -1 0 110)">
				<stop  offset="0" style="stop-color:#F88EE9"/>
				<stop  offset="0.157" style="stop-color:#F88FE6"/>
				<stop  offset="0.4549" style="stop-color:#F99FB4"/>
				<stop  offset="0.9319" style="stop-color:#FCBC5E"/>
			</linearGradient>
			<path class="st2" d="M75.5,38.8c0-12.1,0-21.4,0-21.4c0-1.1-0.9-1.9-1.9-1.9c-10.7,0-19.4,8.7-19.4,19.4l0,0V93h0.3
				c11.6,0,21-9.4,21-21c0-2.8,0-5.8,0-8.9"/>
		</g>
	</g>
	
		<linearGradient id="SVGID_3_" gradientUnits="userSpaceOnUse" x1="2.0229" y1="40.0646" x2="223.6267" y2="81.3371" gradientTransform="matrix(1 0 0 -1 0 110)">
		<stop  offset="0" style="stop-color:#F88EE9"/>
		<stop  offset="0.1641" style="stop-color:#F88FE6"/>
		<stop  offset="0.9454" style="stop-color:#FCBC5E"/>
	</linearGradient>
	<path class="st3" d="M117.4,15.3C106.7,15.3,98,24,98,34.7l0,0v8.1c-0.5,0-18.6,0-18.6,0c-2.1,0-3.8-1.7-3.8-3.8
		c0-12.1,0-21.4,0-21.4c0-1.1-0.9-1.9-1.9-1.9c-10.7,0-19.4,8.7-19.4,19.4l0,0v58.1h0.2c11.6,0,21-9.4,21-21c0-2.8,0-5.8,0-8.9
		c0.2-1.4,1.4-2.5,2.8-2.5c0,0,19.2,0,19.6,0v32.1h0.2c11.6,0,21-9.4,21-21c0-22.4,0-54.5,0-54.5C119.3,16.2,118.4,15.3,117.4,15.3z
		"/>
	<text transform="matrix(1 0 0 1 136.4264 74.6011)"><tspan x="0" y="0" class="st4 st5 st6 st7">Hsin</tspan><tspan x="121.13" y="0" class="st4 st5 st8 st9"> </tspan><tspan x="133.85" y="0" class="st4 st5 st6 st7">Hsuan</tspan></text>
</g>
</svg>
