<?xml version="1.0" encoding="utf-8"?>
<!-- Generator: Adobe Illustrator 22.0.1, SVG Export Plug-In . SVG Version: 6.00 Build 0)  -->
<svg version="1.1" id="Group_14" xmlns="http://www.w3.org/2000/svg" xmlns:xlink="http://www.w3.org/1999/xlink" x="0px" y="0px"
	 viewBox="0 0 108.8 108.8" style="enable-background:new 0 0 108.8 108.8;" xml:space="preserve">
<style type="text/css">
	.st0{opacity:0.75;fill:url(#SVGID_1_);}
	.st1{opacity:0.53;}
	.st2{fill:url(#SVGID_2_);}
	.st3{opacity:0.85;fill:url(#SVGID_3_);}
</style>
<linearGradient id="SVGID_1_" gradientUnits="userSpaceOnUse" x1="-35.8377" y1="67.1534" x2="81.9924" y2="45.2082">
	<stop  offset="0" style="stop-color:#FCBC5E"/>
	<stop  offset="0.1474" style="stop-color:#FCBA63"/>
	<stop  offset="0.3225" style="stop-color:#FBB671"/>
	<stop  offset="0.5119" style="stop-color:#FBAE89"/>
	<stop  offset="0.7113" style="stop-color:#FAA3AB"/>
	<stop  offset="0.9165" style="stop-color:#F994D5"/>
	<stop  offset="1" style="stop-color:#F88EE9"/>
</linearGradient>
<path class="st0" d="M63,15.7c-10.7,0-19.4,8.7-19.4,19.4h0v8.1c-0.5,0-18.6,0-18.6,0c-2.1,0-3.8-1.7-3.8-3.8c0-12.1,0-21.4,0-21.4
	c0-1.1-0.9-1.9-1.9-1.9C8.7,16,0,24.7,0,35.4h0v58.1h0.2c11.6,0,21-9.4,21-21c0-2.8,0-5.8,0-8.9c0.2-1.4,1.4-2.5,2.8-2.5
	c0,0,19.2,0,19.6,0v32.1h0.2c11.6,0,21-9.4,21-21c0-22.4,0-54.5,0-54.5C65,16.5,64.1,15.7,63,15.7z"/>
<g class="st1">
	
		<image style="overflow:visible;opacity:0.45;" width="40" height="96" xlink:href="BAC54F2E04B0C4FF.png"  transform="matrix(1 0 0 1 28.8459 8.8973)">
	</image>
	<g>
		<linearGradient id="SVGID_2_" gradientUnits="userSpaceOnUse" x1="43.758" y1="54.2289" x2="65.042" y2="54.2289">
			<stop  offset="0" style="stop-color:#F88EE9"/>
			<stop  offset="0.157" style="stop-color:#F88FE6"/>
			<stop  offset="0.4549" style="stop-color:#F99FB4"/>
			<stop  offset="0.9319" style="stop-color:#FCBC5E"/>
		</linearGradient>
		<path class="st2" d="M65,38.8c0-12.1,0-21.4,0-21.4c0-1.1-0.9-1.9-1.9-1.9c-10.7,0-19.4,8.7-19.4,19.4h0V93H44
			c11.6,0,21-9.4,21-21c0-2.8,0-5.8,0-8.9"/>
	</g>
</g>
<linearGradient id="SVGID_3_" gradientUnits="userSpaceOnUse" x1="-8.4829" y1="69.8806" x2="213.1209" y2="28.6081">
	<stop  offset="0" style="stop-color:#F88EE9"/>
	<stop  offset="0.1641" style="stop-color:#F88FE6"/>
	<stop  offset="0.9454" style="stop-color:#FCBC5E"/>
</linearGradient>
<path class="st3" d="M106.9,15.3c-10.7,0-19.4,8.7-19.4,19.4h0v8.1c-0.5,0-18.6,0-18.6,0c-2.1,0-3.8-1.7-3.8-3.8
	c0-12.1,0-21.4,0-21.4c0-1.1-0.9-1.9-1.9-1.9c-10.7,0-19.4,8.7-19.4,19.4h0v58.1h0.2c11.6,0,21-9.4,21-21c0-2.8,0-5.8,0-8.9
	c0.2-1.4,1.4-2.5,2.8-2.5c0,0,19.2,0,19.6,0v32.1h0.2c11.6,0,21-9.4,21-21c0-22.4,0-54.5,0-54.5C108.8,16.2,107.9,15.3,106.9,15.3z"
	/>
</svg>
