<?xml version="1.0" encoding="utf-8"?>
<!-- Generator: Adobe Illustrator 25.0.0, SVG Export Plug-In . SVG Version: 6.00 Build 0)  -->
<svg version="1.1" id="Group_14" xmlns="http://www.w3.org/2000/svg" xmlns:xlink="http://www.w3.org/1999/xlink" x="0px" y="0px"
	 viewBox="0 0 460 108.8" style="enable-background:new 0 0 460 108.8;" xml:space="preserve">
<style type="text/css">
	.st0{opacity:0.75;fill:url(#SVGID_1_);enable-background:new    ;}
	.st1{opacity:0.53;}
	.st2{fill:url(#SVGID_2_);}
	.st3{opacity:0.85;fill:url(#SVGID_3_);enable-background:new    ;}
	.st4{enable-background:new    ;}
	.st5{fill:#999999;}
	.st6{font-family:'COCOGOOSE-DemiBold';}
	.st7{font-size:35px;}
</style>
<g>
	
		<linearGradient id="SVGID_1_" gradientUnits="userSpaceOnUse" x1="-25.3331" y1="725.2018" x2="92.497" y2="703.2566" gradientTransform="matrix(1 0 0 1 0 -658)">
		<stop  offset="0" style="stop-color:#FCBC5E"/>
		<stop  offset="0.1474" style="stop-color:#FCBA63"/>
		<stop  offset="0.3225" style="stop-color:#FBB671"/>
		<stop  offset="0.5119" style="stop-color:#FBAE89"/>
		<stop  offset="0.7113" style="stop-color:#FAA3AB"/>
		<stop  offset="0.9165" style="stop-color:#F994D5"/>
		<stop  offset="1" style="stop-color:#F88EE9"/>
	</linearGradient>
	<path class="st0" d="M73.5,15.7c-10.7,0-19.4,8.7-19.4,19.4l0,0v8.1c-0.5,0-18.6,0-18.6,0c-2.1,0-3.8-1.7-3.8-3.8
		c0-12.1,0-21.4,0-21.4c0-1.1-0.9-1.9-1.9-1.9C19.2,16,10.5,24.7,10.5,35.4l0,0v58.1h0.2c11.6,0,21-9.4,21-21c0-2.8,0-5.8,0-8.9
		c0.2-1.4,1.4-2.5,2.8-2.5c0,0,19.2,0,19.6,0v32.1h0.2c11.6,0,21-9.4,21-21c0-22.4,0-54.5,0-54.5C75.5,16.5,74.6,15.7,73.5,15.7z"/>
	<g class="st1">
		<g>
			
				<linearGradient id="SVGID_2_" gradientUnits="userSpaceOnUse" x1="54.2536" y1="712.25" x2="75.5536" y2="712.25" gradientTransform="matrix(1 0 0 1 0 -658)">
				<stop  offset="0" style="stop-color:#F88EE9"/>
				<stop  offset="0.157" style="stop-color:#F88FE6"/>
				<stop  offset="0.4549" style="stop-color:#F99FB4"/>
				<stop  offset="0.9319" style="stop-color:#FCBC5E"/>
			</linearGradient>
			<path class="st2" d="M75.5,38.8c0-12.1,0-21.4,0-21.4c0-1.1-0.9-1.9-1.9-1.9c-10.7,0-19.4,8.7-19.4,19.4l0,0V93h0.3
				c11.6,0,21-9.4,21-21c0-2.8,0-5.8,0-8.9"/>
		</g>
	</g>
	
		<linearGradient id="SVGID_3_" gradientUnits="userSpaceOnUse" x1="2.0231" y1="727.9362" x2="223.6268" y2="686.6637" gradientTransform="matrix(1 0 0 1 0 -658)">
		<stop  offset="0" style="stop-color:#F88EE9"/>
		<stop  offset="0.1641" style="stop-color:#F88FE6"/>
		<stop  offset="0.9454" style="stop-color:#FCBC5E"/>
	</linearGradient>
	<path class="st3" d="M117.4,15.3C106.7,15.3,98,24,98,34.7l0,0v8.1c-0.5,0-18.6,0-18.6,0c-2.1,0-3.8-1.7-3.8-3.8
		c0-12.1,0-21.4,0-21.4c0-1.1-0.9-1.9-1.9-1.9c-10.7,0-19.4,8.7-19.4,19.4l0,0v58.1h0.2c11.6,0,21-9.4,21-21c0-2.8,0-5.8,0-8.9
		c0.2-1.4,1.4-2.5,2.8-2.5c0,0,19.2,0,19.6,0v32.1h0.2c11.6,0,21-9.4,21-21c0-22.4,0-54.5,0-54.5C119.3,16.2,118.4,15.3,117.4,15.3z
		"/>
	<g class="st4">
		<path class="st5" d="M140.3,40c0-0.3,0.1-0.5,0.3-0.7c0.2-0.2,0.4-0.3,0.8-0.3h4.8c0.3,0,0.5,0.1,0.8,0.3s0.4,0.5,0.4,0.7v12.4
			h16.1V40c0-0.3,0.1-0.5,0.3-0.7c0.2-0.2,0.4-0.3,0.8-0.3h4.7c0.3,0,0.6,0.1,0.8,0.3c0.2,0.2,0.3,0.4,0.3,0.8v33.6
			c0,0.7-0.4,1.1-1.1,1.1h-4.8c-0.7,0-1.1-0.4-1.1-1.1V59h-16.1v14.5c0,0.7-0.4,1.1-1.2,1.1h-4.7c-0.7,0-1-0.3-1-1V40z"/>
		<path class="st5" d="M182.8,66c0.3,0.5,0.8,1,1.3,1.4c0.5,0.4,1,0.7,1.6,0.9c0.5,0.2,1,0.4,1.5,0.5c0.5,0.1,0.9,0.2,1.2,0.2
			c0.4,0,1,0,1.6-0.1c0.6-0.1,1.2-0.3,1.7-0.5s1-0.6,1.4-1s0.6-1,0.6-1.6c0-0.6-0.1-1.2-0.4-1.6c-0.3-0.4-0.7-0.7-1.2-1
			s-1.1-0.5-1.7-0.7s-1.3-0.4-2.1-0.6c-1.7-0.4-3.1-1-4.3-1.6c-1.2-0.6-2.2-1.4-2.9-2.2c-0.8-0.8-1.3-1.7-1.7-2.7
			c-0.4-1-0.5-2-0.5-3.2c0-1.3,0.3-2.5,0.8-3.6c0.5-1.1,1.2-2,2.2-2.8c0.9-0.8,2-1.4,3.3-1.8s2.7-0.6,4.3-0.6c1.1,0,2.1,0.1,3,0.3
			s1.7,0.5,2.4,0.9c0.8,0.4,1.5,0.9,2.1,1.5c0.7,0.6,1.3,1.3,2,2.1c0.2,0.3,0.4,0.6,0.4,0.8c0,0.3-0.2,0.6-0.5,0.8
			c-0.2,0.2-0.5,0.4-0.9,0.7s-0.7,0.6-1,0.8c-0.3,0.3-0.6,0.5-0.9,0.7s-0.5,0.3-0.7,0.3c-0.4,0-0.7-0.2-1-0.6
			c-0.4-0.4-0.7-0.8-1.1-1.1c-0.4-0.3-0.7-0.6-1.1-0.8c-0.4-0.2-0.8-0.4-1.2-0.5c-0.4-0.1-0.9-0.2-1.5-0.2c-0.4,0-0.9,0.1-1.4,0.2
			c-0.5,0.1-0.9,0.3-1.3,0.6c-0.4,0.3-0.7,0.6-1,0.9c-0.3,0.4-0.4,0.8-0.4,1.2c0,0.5,0.2,0.9,0.5,1.3c0.3,0.4,0.7,0.7,1.2,0.9
			s1.1,0.5,1.6,0.7c0.6,0.2,1.1,0.3,1.7,0.5c1.5,0.4,2.8,0.9,4,1.4c1.2,0.5,2.3,1.2,3.2,2c0.9,0.8,1.6,1.7,2.1,2.7
			c0.5,1,0.7,2.3,0.7,3.7c0,1.5-0.3,2.8-0.9,4c-0.6,1.2-1.4,2.2-2.5,3s-2.3,1.4-3.7,1.9c-1.4,0.4-3,0.6-4.7,0.6c-1,0-2-0.1-3.1-0.3
			c-1-0.2-2-0.6-3-1c-1-0.5-1.8-1-2.6-1.8c-0.8-0.7-1.5-1.6-2-2.5c-0.2-0.4-0.4-0.8-0.4-1.1c0-0.2,0.1-0.4,0.2-0.5s0.2-0.3,0.4-0.4
			l2.7-2.1c0.2-0.1,0.5-0.2,0.6-0.2c0.2,0,0.4,0.1,0.6,0.2C182.4,65.5,182.6,65.8,182.8,66z"/>
		<path class="st5" d="M207.8,35c0-1,0.5-1.4,1.4-1.4h4c0.4,0,0.8,0.1,1.1,0.4c0.3,0.2,0.4,0.6,0.4,1.1v3.6c0,0.4-0.1,0.7-0.4,1
			c-0.3,0.3-0.6,0.5-1.1,0.5h-4c-1,0-1.4-0.5-1.4-1.5V35z M207.8,45.6c0-0.4,0.1-0.8,0.4-1c0.2-0.3,0.6-0.4,1.1-0.4h4
			c0.2,0,0.4,0,0.5,0.1s0.3,0.2,0.5,0.3s0.3,0.3,0.4,0.5c0.1,0.2,0.1,0.4,0.1,0.6v27.6c0,1-0.5,1.4-1.5,1.4h-4c-1,0-1.4-0.5-1.4-1.4
			V45.6z"/>
		<path class="st5" d="M224.9,44.8c0.2-0.3,0.4-0.4,0.6-0.5c0.1-0.1,0.3-0.2,0.6-0.2s0.5,0,0.7,0h2.4c0.5,0,0.8,0.2,1,0.5
			c0.2,0.3,0.4,0.6,0.5,1l0.3,2.5c0.4-0.5,0.8-1.1,1.4-1.6s1.2-1,1.9-1.4s1.6-0.8,2.5-1c0.9-0.3,2-0.4,3.2-0.4c1.9,0,3.6,0.3,5,1
			c1.5,0.7,2.7,1.6,3.7,2.8c1,1.2,1.8,2.6,2.3,4.2c0.5,1.6,0.8,3.3,0.8,5.2v16c0,0.6-0.1,1-0.4,1.3c-0.3,0.3-0.7,0.4-1.2,0.4h-3.6
			c-0.6,0-1.1-0.1-1.3-0.4c-0.2-0.2-0.3-0.7-0.3-1.3V57c0-0.8-0.1-1.7-0.4-2.5c-0.3-0.8-0.7-1.5-1.3-2.2c-0.6-0.6-1.2-1.2-2.1-1.5
			c-0.8-0.4-1.8-0.6-2.8-0.6c-0.7,0-1.5,0.1-2.3,0.4c-0.8,0.3-1.5,0.7-2.2,1.3s-1.2,1.2-1.6,2c-0.4,0.8-0.7,1.7-0.7,2.6v15.6
			c0,0.3,0,0.6,0,0.9c0,0.3-0.1,0.6-0.2,0.8c-0.1,0.2-0.3,0.4-0.4,0.6c-0.2,0.1-0.4,0.2-0.7,0.2h-4c-0.5,0-0.9-0.1-1.2-0.4
			s-0.4-0.6-0.4-1.1V45.5C224.6,45.3,224.7,45.1,224.9,44.8z"/>
	</g>
	<text transform="matrix(1 0 0 1 257.5564 74.6011)" class="st5 st6 st7"> </text>
	<g class="st4">
		<path class="st5" d="M274.2,40c0-0.3,0.1-0.5,0.3-0.7c0.2-0.2,0.4-0.3,0.8-0.3h4.8c0.3,0,0.5,0.1,0.8,0.3s0.4,0.5,0.4,0.7v12.4
			h16.1V40c0-0.3,0.1-0.5,0.3-0.7s0.4-0.3,0.8-0.3h4.7c0.3,0,0.6,0.1,0.8,0.3c0.2,0.2,0.3,0.4,0.3,0.8v33.6c0,0.7-0.4,1.1-1.1,1.1
			h-4.8c-0.7,0-1.1-0.4-1.1-1.1V59h-16.1v14.5c0,0.7-0.4,1.1-1.2,1.1h-4.7c-0.7,0-1-0.3-1-1V40z"/>
		<path class="st5" d="M316.6,66c0.3,0.5,0.8,1,1.3,1.4s1,0.7,1.6,0.9c0.5,0.2,1,0.4,1.5,0.5c0.5,0.1,0.9,0.2,1.2,0.2
			c0.4,0,1,0,1.6-0.1c0.6-0.1,1.2-0.3,1.7-0.5s1-0.6,1.4-1s0.6-1,0.6-1.6c0-0.6-0.1-1.2-0.4-1.6c-0.3-0.4-0.7-0.7-1.2-1
			s-1.1-0.5-1.7-0.7c-0.6-0.2-1.3-0.4-2.1-0.6c-1.7-0.4-3.1-1-4.3-1.6c-1.2-0.6-2.2-1.4-2.9-2.2c-0.8-0.8-1.3-1.7-1.7-2.7
			c-0.4-1-0.5-2-0.5-3.2c0-1.3,0.3-2.5,0.8-3.6c0.5-1.1,1.2-2,2.2-2.8c0.9-0.8,2-1.4,3.3-1.8c1.3-0.4,2.7-0.6,4.3-0.6
			c1.1,0,2.1,0.1,3,0.3s1.7,0.5,2.4,0.9c0.8,0.4,1.5,0.9,2.1,1.5c0.7,0.6,1.3,1.3,2,2.1c0.2,0.3,0.4,0.6,0.4,0.8
			c0,0.3-0.2,0.6-0.5,0.8c-0.2,0.2-0.5,0.4-0.9,0.7s-0.7,0.6-1,0.8c-0.3,0.3-0.6,0.5-0.9,0.7s-0.5,0.3-0.7,0.3c-0.4,0-0.7-0.2-1-0.6
			c-0.4-0.4-0.7-0.8-1.1-1.1c-0.4-0.3-0.7-0.6-1.1-0.8c-0.4-0.2-0.8-0.4-1.2-0.5c-0.4-0.1-0.9-0.2-1.5-0.2c-0.4,0-0.9,0.1-1.4,0.2
			s-0.9,0.3-1.3,0.6c-0.4,0.3-0.7,0.6-1,0.9c-0.3,0.4-0.4,0.8-0.4,1.2c0,0.5,0.2,0.9,0.5,1.3c0.3,0.4,0.7,0.7,1.2,0.9
			c0.5,0.3,1,0.5,1.6,0.7c0.6,0.2,1.1,0.3,1.7,0.5c1.5,0.4,2.8,0.9,4,1.4c1.2,0.5,2.3,1.2,3.2,2c0.9,0.8,1.6,1.7,2.1,2.7
			c0.5,1,0.7,2.3,0.7,3.7c0,1.5-0.3,2.8-0.9,4c-0.6,1.2-1.4,2.2-2.5,3c-1,0.8-2.3,1.4-3.7,1.9s-3,0.6-4.7,0.6c-1,0-2-0.1-3.1-0.3
			c-1-0.2-2-0.6-3-1c-1-0.5-1.8-1-2.6-1.8c-0.8-0.7-1.5-1.6-2-2.5c-0.2-0.4-0.4-0.8-0.4-1.1c0-0.2,0.1-0.4,0.2-0.5
			c0.1-0.2,0.2-0.3,0.4-0.4l2.7-2.1c0.2-0.1,0.5-0.2,0.6-0.2c0.2,0,0.4,0.1,0.6,0.2C316.2,65.5,316.4,65.8,316.6,66z"/>
		<path class="st5" d="M368.2,73.7c0,0.2-0.1,0.3-0.2,0.4c-0.1,0.1-0.3,0.2-0.4,0.2s-0.4,0.1-0.6,0.1s-0.4,0-0.6,0H364
			c-0.5,0-0.8-0.1-1-0.4c-0.2-0.3-0.4-0.6-0.5-1l-0.3-2.2c-0.4,0.5-0.8,1-1.3,1.5c-0.5,0.5-1.2,0.9-1.9,1.3
			c-0.7,0.4-1.5,0.7-2.5,0.9c-0.9,0.2-2,0.3-3.2,0.3c-1.9,0-3.6-0.3-5-1c-1.5-0.7-2.7-1.6-3.7-2.8c-1-1.2-1.7-2.6-2.2-4.2
			c-0.5-1.6-0.8-3.3-0.8-5.2v-16c0-0.6,0.1-1,0.4-1.3c0.3-0.3,0.7-0.4,1.2-0.4h3.6c0.6,0,1.1,0.1,1.3,0.4c0.2,0.2,0.3,0.7,0.3,1.3
			v16c0,0.8,0.1,1.7,0.4,2.5c0.3,0.8,0.7,1.5,1.2,2.2c0.5,0.6,1.2,1.2,2,1.5s1.7,0.6,2.8,0.6c0.7,0,1.5-0.1,2.3-0.4
			c0.8-0.3,1.5-0.6,2.2-1.2c0.7-0.5,1.2-1.2,1.6-2c0.4-0.8,0.6-1.7,0.6-2.8V46.4c0-0.3,0-0.6,0-0.9c0-0.3,0.1-0.6,0.2-0.8
			c0.1-0.2,0.2-0.4,0.4-0.6c0.2-0.2,0.4-0.2,0.8-0.2h4c0.5,0,0.9,0.1,1.2,0.4c0.2,0.3,0.4,0.6,0.4,1.1v27.6
			C368.6,73.3,368.5,73.5,368.2,73.7z"/>
		<path class="st5" d="M407.8,73.2c0,0.3-0.1,0.5-0.2,0.7c-0.1,0.2-0.3,0.3-0.5,0.4c-0.2,0.1-0.4,0.2-0.7,0.2
			c-0.2,0-0.5,0.1-0.8,0.1h-3c-0.5,0-0.9-0.1-1.1-0.4s-0.3-0.6-0.4-1l-0.1-2c-0.6,0.6-1.2,1.1-1.9,1.6c-0.7,0.5-1.4,0.9-2.2,1.3
			c-0.8,0.4-1.6,0.6-2.5,0.8c-0.9,0.2-1.8,0.3-2.7,0.3c-1.4,0-2.8-0.2-4.2-0.6s-2.6-0.9-3.8-1.6s-2.2-1.5-3.2-2.5
			c-1-1-1.8-2-2.4-3.2c-0.7-1.2-1.2-2.4-1.6-3.8s-0.6-2.7-0.6-4.2c0-1.5,0.2-2.9,0.6-4.2c0.4-1.3,0.9-2.6,1.6-3.8
			c0.7-1.2,1.5-2.2,2.4-3.2c1-1,2-1.8,3.2-2.4c1.2-0.7,2.4-1.2,3.8-1.6c1.3-0.4,2.7-0.6,4.2-0.6c1,0,2,0.1,2.9,0.3
			c0.9,0.2,1.8,0.5,2.6,0.9c0.8,0.4,1.6,0.9,2.2,1.4c0.7,0.6,1.3,1.2,1.9,1.8l0.3-2.6c0.1-0.3,0.2-0.5,0.2-0.7
			c0.1-0.2,0.2-0.3,0.3-0.4c0.1-0.1,0.2-0.2,0.4-0.2c0.2,0,0.4-0.1,0.6-0.1h2.4c0.3,0,0.5,0,0.8,0.1c0.3,0,0.5,0.1,0.7,0.2
			c0.2,0.1,0.4,0.2,0.5,0.4c0.1,0.2,0.2,0.4,0.2,0.7V73.2z M382.9,59.3c0,1.3,0.2,2.5,0.7,3.6c0.4,1.1,1.1,2.1,1.9,3
			c0.8,0.9,1.7,1.5,2.8,2.1s2.3,0.8,3.5,0.8c1.3,0,2.5-0.3,3.6-0.8s2.1-1.2,2.9-2.1c0.8-0.9,1.5-1.9,2-3c0.5-1.1,0.7-2.4,0.7-3.6
			c0-1.3-0.2-2.5-0.7-3.6c-0.5-1.1-1.1-2.1-2-3c-0.8-0.9-1.8-1.6-2.9-2.1c-1.1-0.5-2.3-0.8-3.6-0.8c-1.3,0-2.5,0.3-3.5,0.8
			c-1.1,0.5-2,1.2-2.8,2.1c-0.8,0.9-1.4,1.9-1.9,3C383.1,56.9,382.9,58.1,382.9,59.3z"/>
		<path class="st5" d="M416.4,44.8c0.2-0.3,0.4-0.4,0.6-0.5c0.1-0.1,0.3-0.2,0.6-0.2s0.5,0,0.7,0h2.4c0.5,0,0.8,0.2,1,0.5
			c0.2,0.3,0.4,0.6,0.5,1l0.3,2.5c0.4-0.5,0.8-1.1,1.4-1.6s1.2-1,1.9-1.4c0.7-0.4,1.6-0.8,2.5-1s2-0.4,3.2-0.4c1.9,0,3.6,0.3,5,1
			c1.5,0.7,2.7,1.6,3.7,2.8c1,1.2,1.8,2.6,2.3,4.2c0.5,1.6,0.8,3.3,0.8,5.2v16c0,0.6-0.1,1-0.4,1.3c-0.3,0.3-0.7,0.4-1.2,0.4H438
			c-0.6,0-1.1-0.1-1.3-0.4c-0.2-0.2-0.3-0.7-0.3-1.3V57c0-0.8-0.1-1.7-0.4-2.5c-0.3-0.8-0.7-1.5-1.3-2.2c-0.6-0.6-1.2-1.2-2.1-1.5
			c-0.8-0.4-1.8-0.6-2.8-0.6c-0.7,0-1.5,0.1-2.3,0.4c-0.8,0.3-1.5,0.7-2.2,1.3c-0.7,0.5-1.2,1.2-1.6,2c-0.4,0.8-0.7,1.7-0.7,2.6
			v15.6c0,0.3,0,0.6,0,0.9c0,0.3-0.1,0.6-0.2,0.8c-0.1,0.2-0.3,0.4-0.4,0.6c-0.2,0.1-0.4,0.2-0.7,0.2h-4c-0.5,0-0.9-0.1-1.2-0.4
			s-0.4-0.6-0.4-1.1V45.5C416.1,45.3,416.2,45.1,416.4,44.8z"/>
	</g>
</g>
</svg>
